<svg height="1024" width="1024" xmlns:dc="http://purl.org/dc/elements/1.1/" xmlns:cc="http://creativecommons.org/ns#" xmlns:rdf="http://www.w3.org/1999/02/22-rdf-syntax-ns#" xmlns:svg="http://www.w3.org/2000/svg" xmlns="http://www.w3.org/2000/svg" xmlns:sodipodi="http://sodipodi.sourceforge.net/DTD/sodipodi-0.dtd" xmlns:inkscape="http://www.inkscape.org/namespaces/inkscape" version="1.1" x="0px" y="0px" viewBox="0 0 100 100"><g transform="translate(0,-952.36218)"><path style="font-size:medium;font-style:normal;font-variant:normal;font-weight:normal;font-stretch:normal;text-indent:0;text-align:start;text-decoration:none;line-height:normal;letter-spacing:normal;word-spacing:normal;text-transform:none;direction:ltr;block-progression:tb;writing-mode:lr-tb;text-anchor:start;baseline-shift:baseline;opacity:1;color:#000000;fill:#000000;fill-opacity:1;stroke:none;stroke-width:2.93389963999999990;marker:none;visibility:visible;display:inline;overflow:visible;enable-background:accumulate;font-family:Sans;-inkscape-font-specification:Sans" d="M 14.5 17 C 9.2729076 17 5 21.27291 5 26.5 L 5 59.5 C 5 64.7271 9.2729076 69 14.5 69 L 65.0625 69 C 65.582061 76.796104 72.076606 83 80 83 C 88.260586 83 95 76.2606 95 68 C 95 61.487052 90.82187 55.939761 85 53.875 L 85 26.5 C 85 21.27291 80.727092 17 75.5 17 L 14.5 17 z M 14.5 21 L 75.5 21 C 78.57666 21 81 23.42334 81 26.5 L 81 53.0625 C 80.668224 53.040389 80.337193 53 80 53 C 72.771987 53 66.715814 58.175659 65.3125 65 L 14.5 65 C 11.42334 65 9 62.5766 9 59.5 L 9 26.5 C 9 23.42334 11.42334 21 14.5 21 z M 39.875 29.90625 A 1.9441646 2.0578505 0 0 0 38.0625 32 L 38.0625 54 A 1.9441646 2.0578505 0 0 0 38.0625 54.21875 A 1.9441646 2.0578505 0 0 0 41 55.8125 L 58.96875 44.8125 A 1.9441646 2.0578505 0 0 0 58.96875 41.1875 L 41 30.1875 A 1.9441646 2.0578505 0 0 0 39.875 29.90625 z M 41.9375 35.5625 L 54.0625 43 L 41.9375 50.4375 L 41.9375 35.5625 z M 80 57 C 86.098821 57 91 61.9012 91 68 C 91 74.0988 86.098821 79 80 79 C 73.901179 79 69 74.0988 69 68 C 69 61.9012 73.901179 57 80 57 z M 79.78125 58.96875 A 2.0001998 2.0001998 0 0 0 78 61 L 78 66 L 73 66 A 2.0001998 2.0001998 0 0 0 72.8125 66 A 2.0021961 2.0021961 0 1 0 73 70 L 78 70 L 78 75 A 2.0001998 2.0001998 0 1 0 82 75 L 82 70 L 87 70 A 2.0001998 2.0001998 0 1 0 87 66 L 82 66 L 82 61 A 2.0001998 2.0001998 0 0 0 79.78125 58.96875 z " transform="translate(0,952.36218)"></path></g></svg>